<?xml version="1.0" encoding="UTF-8"?>
<svg id="Layer_2" data-name="Layer 2" xmlns="http://www.w3.org/2000/svg" viewBox="0 0 19.51 19.51">
  <g id="Unika">
    <path style="fill: #000;stroke-width: 0px;" d="M19.51,9.76c0,5.39-4.37,9.76-9.76,9.76S0,15.14,0,9.76,4.37,0,9.76,0c5.39,0,9.75,4.37,9.76,9.76ZM1.63,9.76c0,4.49,3.64,8.13,8.13,8.13s8.13-3.64,8.13-8.13S14.25,1.63,9.76,1.63c-4.49,0-8.13,3.64-8.13,8.13ZM8.13,4.88v9.76l4.59-4.2c.37-.33.4-.91.07-1.28-.02-.02-.05-.05-.07-.07l-4.59-4.2Z"/>
  </g>
</svg>