<?xml version="1.0" encoding="UTF-8"?>
<svg id="Layer_2" data-name="Layer 2" xmlns="http://www.w3.org/2000/svg" xmlns:xlink="http://www.w3.org/1999/xlink" viewBox="0 0 55 54">
  <defs>
    <style>
      .cls-1 {
        fill: #f5f5f5;
        filter: url(#drop-shadow-1);
        stroke-width: 0px;
      }
    </style>
    <filter id="drop-shadow-1" filterUnits="userSpaceOnUse">
      <feOffset dx="3" dy="3"/>
      <feGaussianBlur result="blur" stdDeviation="6"/>
      <feFlood flood-color="#000" flood-opacity=".15"/>
      <feComposite in2="blur" operator="in"/>
      <feComposite in="SourceGraphic"/>
    </filter>
  </defs>
  <g id="Capa_1" data-name="Capa 1">
    <path class="cls-1" d="M15.22,24c0-4.96,4.02-8.99,8.99-8.99s8.99,4.02,8.99,8.99-4.02,8.99-8.99,8.99c-4.96,0-8.98-4.03-8.99-8.99ZM31.7,24c0-4.14-3.35-7.49-7.49-7.49s-7.49,3.35-7.49,7.49,3.35,7.49,7.49,7.49c4.13,0,7.49-3.36,7.49-7.49ZM21.65,25.06l3.53,3.53,1.06-1.06-3.53-3.53,3.5-3.5-1.06-1.06-3.5,3.5c-.58.58-.58,1.53,0,2.12h0Z"/>
  </g>
</svg>