<?xml version="1.0" encoding="UTF-8"?>
<svg xmlns="http://www.w3.org/2000/svg" xmlns:xlink="http://www.w3.org/1999/xlink"
    viewBox="0 0 1279 721">
    <defs>
        <style>
            .cls-1 {
            isolation: isolate;
            }

            .cls-2 {
            fill: none;
            }

            .cls-2, .cls-3, .cls-4 {
            stroke-width: 0px;
            }

            .cls-3 {
            fill: #afc9c3;
            }

            .cls-4 {
            fill: url(#Nueva_muestra_de_motivo_1);
            mix-blend-mode: multiply;
            opacity: .14;
            }
        </style>
        <pattern id="Nueva_muestra_de_motivo_1" data-name="Nueva muestra de motivo 1" x="0" y="0"
            width="918.74" height="1548.06"
            patternTransform="translate(-7157.89 -6376.13) rotate(-30) scale(.65)"
            patternUnits="userSpaceOnUse" viewBox="0 0 918.74 1548.06">
            <g>
                <rect class="cls-2" y="0" width="918.74" height="1548.06" />
                <g>
                    <path class="cls-3"
                        d="M699.54,1132.07l-18.07,17.98c-1.26,1.39-4.68,6.23-.37,14.03l20.21,22.42,47.52.06-49.29-54.48Z" />
                    <path class="cls-3"
                        d="M641.47,1173.29l126.27-125.75h-42.69l-61.87,62.44v-30.17h-35.19v93.47s5.47,7.97,13.47,0Z" />
                    <path class="cls-3"
                        d="M886.54,1132.07l-18.07,17.98c-1.26,1.39-4.68,6.23-.37,14.03l20.21,22.42,47.52.06-49.29-54.48Z" />
                    <path class="cls-3"
                        d="M828.47,1173.29l126.27-125.75h-42.69l-61.87,62.44v-30.17h-35.19v93.47s5.47,7.97,13.47,0Z" />
                    <path class="cls-3"
                        d="M699.54,1305.07l-18.07,17.98c-1.26,1.39-4.68,6.23-.37,14.03l20.21,22.42,47.52.06-49.29-54.48Z" />
                    <path class="cls-3"
                        d="M641.47,1346.29l126.27-125.75h-42.69l-61.87,62.44v-30.17h-35.19v93.47s5.47,7.97,13.47,0Z" />
                    <path class="cls-3"
                        d="M886.54,1305.07l-18.07,17.98c-1.26,1.39-4.68,6.23-.37,14.03l20.21,22.42,47.52.06-49.29-54.48Z" />
                    <path class="cls-3"
                        d="M828.47,1346.29l126.27-125.75h-42.69l-61.87,62.44v-30.17h-35.19v93.47s5.47,7.97,13.47,0Z" />
                    <path class="cls-3"
                        d="M699.54,1478.07l-18.07,17.98c-1.26,1.39-4.68,6.23-.37,14.03l20.21,22.42,47.52.06-49.29-54.48Z" />
                    <path class="cls-3"
                        d="M641.47,1519.29l126.27-125.75h-42.69l-61.87,62.44v-30.17h-35.19v93.47s5.47,7.97,13.47,0Z" />
                    <path class="cls-3"
                        d="M886.54,1478.07l-18.07,17.98c-1.26,1.39-4.68,6.23-.37,14.03l20.21,22.42,47.52.06-49.29-54.48Z" />
                    <path class="cls-3"
                        d="M828.47,1519.29l126.27-125.75h-42.69l-61.87,62.44v-30.17h-35.19v93.47s5.47,7.97,13.47,0Z" />
                </g>
                <g>
                    <path class="cls-3"
                        d="M-32.2,1132.07l-18.07,17.98c-1.26,1.39-4.68,6.23-.37,14.03l20.21,22.42,47.52.06-49.29-54.48Z" />
                    <path class="cls-3"
                        d="M-90.27,1173.29l126.27-125.75H-6.69l-61.87,62.44v-30.17h-35.19v93.47s5.47,7.97,13.47,0Z" />
                    <path class="cls-3"
                        d="M154.8,1132.07l-18.07,17.98c-1.26,1.39-4.68,6.23-.37,14.03l20.21,22.42,47.52.06-49.29-54.48Z" />
                    <path class="cls-3"
                        d="M96.73,1173.29l126.27-125.75h-42.69l-61.87,62.44v-30.17h-35.19v93.47s5.47,7.97,13.47,0Z" />
                    <path class="cls-3"
                        d="M341.8,1132.07l-18.07,17.98c-1.26,1.39-4.68,6.23-.37,14.03l20.21,22.42,47.52.06-49.29-54.48Z" />
                    <path class="cls-3"
                        d="M283.73,1173.29l126.27-125.75h-42.69l-61.87,62.44v-30.17h-35.19v93.47s5.47,7.97,13.47,0Z" />
                    <path class="cls-3"
                        d="M528.8,1132.07l-18.07,17.98c-1.26,1.39-4.68,6.23-.37,14.03l20.21,22.42,47.52.06-49.29-54.48Z" />
                    <path class="cls-3"
                        d="M470.73,1173.29l126.27-125.75h-42.69l-61.87,62.44v-30.17h-35.19v93.47s5.47,7.97,13.47,0Z" />
                    <path class="cls-3"
                        d="M-32.2,1305.07l-18.07,17.98c-1.26,1.39-4.68,6.23-.37,14.03l20.21,22.42,47.52.06-49.29-54.48Z" />
                    <path class="cls-3"
                        d="M-90.27,1346.29l126.27-125.75H-6.69l-61.87,62.44v-30.17h-35.19v93.47s5.47,7.97,13.47,0Z" />
                    <path class="cls-3"
                        d="M154.8,1305.07l-18.07,17.98c-1.26,1.39-4.68,6.23-.37,14.03l20.21,22.42,47.52.06-49.29-54.48Z" />
                    <path class="cls-3"
                        d="M96.73,1346.29l126.27-125.75h-42.69l-61.87,62.44v-30.17h-35.19v93.47s5.47,7.97,13.47,0Z" />
                    <path class="cls-3"
                        d="M341.8,1305.07l-18.07,17.98c-1.26,1.39-4.68,6.23-.37,14.03l20.21,22.42,47.52.06-49.29-54.48Z" />
                    <path class="cls-3"
                        d="M283.73,1346.29l126.27-125.75h-42.69l-61.87,62.44v-30.17h-35.19v93.47s5.47,7.97,13.47,0Z" />
                    <path class="cls-3"
                        d="M528.8,1305.07l-18.07,17.98c-1.26,1.39-4.68,6.23-.37,14.03l20.21,22.42,47.52.06-49.29-54.48Z" />
                    <path class="cls-3"
                        d="M470.73,1346.29l126.27-125.75h-42.69l-61.87,62.44v-30.17h-35.19v93.47s5.47,7.97,13.47,0Z" />
                    <path class="cls-3"
                        d="M-32.2,1478.07l-18.07,17.98c-1.26,1.39-4.68,6.23-.37,14.03l20.21,22.42,47.52.06-49.29-54.48Z" />
                    <path class="cls-3"
                        d="M-90.27,1519.29l126.27-125.75H-6.69l-61.87,62.44v-30.17h-35.19v93.47s5.47,7.97,13.47,0Z" />
                    <path class="cls-3"
                        d="M154.8,1478.07l-18.07,17.98c-1.26,1.39-4.68,6.23-.37,14.03l20.21,22.42,47.52.06-49.29-54.48Z" />
                    <path class="cls-3"
                        d="M96.73,1519.29l126.27-125.75h-42.69l-61.87,62.44v-30.17h-35.19v93.47s5.47,7.97,13.47,0Z" />
                    <path class="cls-3"
                        d="M341.8,1478.07l-18.07,17.98c-1.26,1.39-4.68,6.23-.37,14.03l20.21,22.42,47.52.06-49.29-54.48Z" />
                    <path class="cls-3"
                        d="M283.73,1519.29l126.27-125.75h-42.69l-61.87,62.44v-30.17h-35.19v93.47s5.47,7.97,13.47,0Z" />
                    <path class="cls-3"
                        d="M528.8,1478.07l-18.07,17.98c-1.26,1.39-4.68,6.23-.37,14.03l20.21,22.42,47.52.06-49.29-54.48Z" />
                    <path class="cls-3"
                        d="M470.73,1519.29l126.27-125.75h-42.69l-61.87,62.44v-30.17h-35.19v93.47s5.47,7.97,13.47,0Z" />
                </g>
                <g>
                    <path class="cls-3"
                        d="M87.05,616.05l-18.07,17.98c-1.26,1.39-4.68,6.23-.37,14.03l20.21,22.42,47.52.06-49.29-54.48Z" />
                    <path class="cls-3"
                        d="M28.97,657.27l126.27-125.75h-42.69l-61.87,62.44v-30.17H15.5v93.47s5.47,7.97,13.47,0Z" />
                    <path class="cls-3"
                        d="M274.05,616.05l-18.07,17.98c-1.26,1.39-4.68,6.23-.37,14.03l20.21,22.42,47.52.06-49.29-54.48Z" />
                    <path class="cls-3"
                        d="M215.97,657.27l126.27-125.75h-42.69l-61.87,62.44v-30.17h-35.19v93.47s5.47,7.97,13.47,0Z" />
                    <path class="cls-3"
                        d="M461.05,616.05l-18.07,17.98c-1.26,1.39-4.68,6.23-.37,14.03l20.21,22.42,47.52.06-49.29-54.48Z" />
                    <path class="cls-3"
                        d="M402.97,657.27l126.27-125.75h-42.69l-61.87,62.44v-30.17h-35.19v93.47s5.47,7.97,13.47,0Z" />
                    <path class="cls-3"
                        d="M648.05,616.05l-18.07,17.98c-1.26,1.39-4.68,6.23-.37,14.03l20.21,22.42,47.52.06-49.29-54.48Z" />
                    <path class="cls-3"
                        d="M589.97,657.27l126.27-125.75h-42.69l-61.87,62.44v-30.17h-35.19v93.47s5.47,7.97,13.47,0Z" />
                    <path class="cls-3"
                        d="M835.05,616.05l-18.07,17.98c-1.26,1.39-4.68,6.23-.37,14.03l20.21,22.42,47.52.06-49.29-54.48Z" />
                    <path class="cls-3"
                        d="M776.97,657.27l126.27-125.75h-42.69l-61.87,62.44v-30.17h-35.19v93.47s5.47,7.97,13.47,0Z" />
                    <path class="cls-3"
                        d="M87.05,789.05l-18.07,17.98c-1.26,1.39-4.68,6.23-.37,14.03l20.21,22.42,47.52.06-49.29-54.48Z" />
                    <path class="cls-3"
                        d="M28.97,830.27l126.27-125.75h-42.69l-61.87,62.44v-30.17H15.5v93.47s5.47,7.97,13.47,0Z" />
                    <path class="cls-3"
                        d="M274.05,789.05l-18.07,17.98c-1.26,1.39-4.68,6.23-.37,14.03l20.21,22.42,47.52.06-49.29-54.48Z" />
                    <path class="cls-3"
                        d="M215.97,830.27l126.27-125.75h-42.69l-61.87,62.44v-30.17h-35.19v93.47s5.47,7.97,13.47,0Z" />
                    <path class="cls-3"
                        d="M461.05,789.05l-18.07,17.98c-1.26,1.39-4.68,6.23-.37,14.03l20.21,22.42,47.52.06-49.29-54.48Z" />
                    <path class="cls-3"
                        d="M402.97,830.27l126.27-125.75h-42.69l-61.87,62.44v-30.17h-35.19v93.47s5.47,7.97,13.47,0Z" />
                    <path class="cls-3"
                        d="M648.05,789.05l-18.07,17.98c-1.26,1.39-4.68,6.23-.37,14.03l20.21,22.42,47.52.06-49.29-54.48Z" />
                    <path class="cls-3"
                        d="M589.97,830.27l126.27-125.75h-42.69l-61.87,62.44v-30.17h-35.19v93.47s5.47,7.97,13.47,0Z" />
                    <path class="cls-3"
                        d="M835.05,789.05l-18.07,17.98c-1.26,1.39-4.68,6.23-.37,14.03l20.21,22.42,47.52.06-49.29-54.48Z" />
                    <path class="cls-3"
                        d="M776.97,830.27l126.27-125.75h-42.69l-61.87,62.44v-30.17h-35.19v93.47s5.47,7.97,13.47,0Z" />
                    <path class="cls-3"
                        d="M87.05,962.05l-18.07,17.98c-1.26,1.39-4.68,6.23-.37,14.03l20.21,22.42,47.52.06-49.29-54.48Z" />
                    <path class="cls-3"
                        d="M28.97,1003.27l126.27-125.75h-42.69l-61.87,62.44v-30.17H15.5v93.47s5.47,7.97,13.47,0Z" />
                    <path class="cls-3"
                        d="M274.05,962.05l-18.07,17.98c-1.26,1.39-4.68,6.23-.37,14.03l20.21,22.42,47.52.06-49.29-54.48Z" />
                    <path class="cls-3"
                        d="M215.97,1003.27l126.27-125.75h-42.69l-61.87,62.44v-30.17h-35.19v93.47s5.47,7.97,13.47,0Z" />
                    <path class="cls-3"
                        d="M461.05,962.05l-18.07,17.98c-1.26,1.39-4.68,6.23-.37,14.03l20.21,22.42,47.52.06-49.29-54.48Z" />
                    <path class="cls-3"
                        d="M402.97,1003.27l126.27-125.75h-42.69l-61.87,62.44v-30.17h-35.19v93.47s5.47,7.97,13.47,0Z" />
                    <path class="cls-3"
                        d="M648.05,962.05l-18.07,17.98c-1.26,1.39-4.68,6.23-.37,14.03l20.21,22.42,47.52.06-49.29-54.48Z" />
                    <path class="cls-3"
                        d="M589.97,1003.27l126.27-125.75h-42.69l-61.87,62.44v-30.17h-35.19v93.47s5.47,7.97,13.47,0Z" />
                    <path class="cls-3"
                        d="M835.05,962.05l-18.07,17.98c-1.26,1.39-4.68,6.23-.37,14.03l20.21,22.42,47.52.06-49.29-54.48Z" />
                    <path class="cls-3"
                        d="M776.97,1003.27l126.27-125.75h-42.69l-61.87,62.44v-30.17h-35.19v93.47s5.47,7.97,13.47,0Z" />
                </g>
                <g>
                    <path class="cls-3"
                        d="M393.29,100.04l-18.07,17.98c-1.26,1.39-4.68,6.23-.37,14.03l20.21,22.42,47.52.06-49.29-54.48Z" />
                    <path class="cls-3"
                        d="M335.22,141.25L461.49,15.5h-42.69l-61.87,62.44v-30.17h-35.19v93.47s5.47,7.97,13.47,0Z" />
                    <path class="cls-3"
                        d="M580.29,100.04l-18.07,17.98c-1.26,1.39-4.68,6.23-.37,14.03l20.21,22.42,47.52.06-49.29-54.48Z" />
                    <path class="cls-3"
                        d="M522.22,141.25l126.27-125.75h-42.69l-61.87,62.44v-30.17h-35.19v93.47s5.47,7.97,13.47,0Z" />
                    <path class="cls-3"
                        d="M767.29,100.04l-18.07,17.98c-1.26,1.39-4.68,6.23-.37,14.03l20.21,22.42,47.52.06-49.29-54.48Z" />
                    <path class="cls-3"
                        d="M709.22,141.25l126.27-125.75h-42.69l-61.87,62.44v-30.17h-35.19v93.47s5.47,7.97,13.47,0Z" />
                    <path class="cls-3"
                        d="M896.22,141.25l126.27-125.75h-42.69l-61.87,62.44v-30.17h-35.19v93.47s5.47,7.97,13.47,0Z" />
                    <path class="cls-3"
                        d="M393.29,273.04l-18.07,17.98c-1.26,1.39-4.68,6.23-.37,14.03l20.21,22.42,47.52.06-49.29-54.48Z" />
                    <path class="cls-3"
                        d="M335.22,314.25l126.27-125.75h-42.69l-61.87,62.44v-30.17h-35.19v93.47s5.47,7.97,13.47,0Z" />
                    <path class="cls-3"
                        d="M580.29,273.04l-18.07,17.98c-1.26,1.39-4.68,6.23-.37,14.03l20.21,22.42,47.52.06-49.29-54.48Z" />
                    <path class="cls-3"
                        d="M522.22,314.25l126.27-125.75h-42.69l-61.87,62.44v-30.17h-35.19v93.47s5.47,7.97,13.47,0Z" />
                    <path class="cls-3"
                        d="M767.29,273.04l-18.07,17.98c-1.26,1.39-4.68,6.23-.37,14.03l20.21,22.42,47.52.06-49.29-54.48Z" />
                    <path class="cls-3"
                        d="M709.22,314.25l126.27-125.75h-42.69l-61.87,62.44v-30.17h-35.19v93.47s5.47,7.97,13.47,0Z" />
                    <path class="cls-3"
                        d="M896.22,314.25l126.27-125.75h-42.69l-61.87,62.44v-30.17h-35.19v93.47s5.47,7.97,13.47,0Z" />
                    <path class="cls-3"
                        d="M393.29,446.04l-18.07,17.98c-1.26,1.39-4.68,6.23-.37,14.03l20.21,22.42,47.52.06-49.29-54.48Z" />
                    <path class="cls-3"
                        d="M335.22,487.25l126.27-125.75h-42.69l-61.87,62.44v-30.17h-35.19v93.47s5.47,7.97,13.47,0Z" />
                    <path class="cls-3"
                        d="M580.29,446.04l-18.07,17.98c-1.26,1.39-4.68,6.23-.37,14.03l20.21,22.42,47.52.06-49.29-54.48Z" />
                    <path class="cls-3"
                        d="M522.22,487.25l126.27-125.75h-42.69l-61.87,62.44v-30.17h-35.19v93.47s5.47,7.97,13.47,0Z" />
                    <path class="cls-3"
                        d="M767.29,446.04l-18.07,17.98c-1.26,1.39-4.68,6.23-.37,14.03l20.21,22.42,47.52.06-49.29-54.48Z" />
                    <path class="cls-3"
                        d="M709.22,487.25l126.27-125.75h-42.69l-61.87,62.44v-30.17h-35.19v93.47s5.47,7.97,13.47,0Z" />
                    <path class="cls-3"
                        d="M896.22,487.25l126.27-125.75h-42.69l-61.87,62.44v-30.17h-35.19v93.47s5.47,7.97,13.47,0Z" />
                </g>
                <g>
                    <path class="cls-3"
                        d="M35.55,100.04l-18.07,17.98c-1.26,1.39-4.68,6.23-.37,14.03l20.21,22.42,47.52.06-49.29-54.48Z" />
                    <path class="cls-3"
                        d="M-22.52,141.25L103.75,15.5h-42.69L-.81,77.94v-30.17h-35.19v93.47s5.47,7.97,13.47,0Z" />
                    <path class="cls-3"
                        d="M222.55,100.04l-18.07,17.98c-1.26,1.39-4.68,6.23-.37,14.03l20.21,22.42,47.52.06-49.29-54.48Z" />
                    <path class="cls-3"
                        d="M164.48,141.25L290.75,15.5h-42.69l-61.87,62.44v-30.17h-35.19v93.47s5.47,7.97,13.47,0Z" />
                    <path class="cls-3"
                        d="M35.55,273.04l-18.07,17.98c-1.26,1.39-4.68,6.23-.37,14.03l20.21,22.42,47.52.06-49.29-54.48Z" />
                    <path class="cls-3"
                        d="M-22.52,314.25l126.27-125.75h-42.69L-.81,250.94v-30.17h-35.19v93.47s5.47,7.97,13.47,0Z" />
                    <path class="cls-3"
                        d="M222.55,273.04l-18.07,17.98c-1.26,1.39-4.68,6.23-.37,14.03l20.21,22.42,47.52.06-49.29-54.48Z" />
                    <path class="cls-3"
                        d="M164.48,314.25l126.27-125.75h-42.69l-61.87,62.44v-30.17h-35.19v93.47s5.47,7.97,13.47,0Z" />
                    <path class="cls-3"
                        d="M35.55,446.04l-18.07,17.98c-1.26,1.39-4.68,6.23-.37,14.03l20.21,22.42,47.52.06-49.29-54.48Z" />
                    <path class="cls-3"
                        d="M-22.52,487.25l126.27-125.75h-42.69L-.81,423.94v-30.17h-35.19v93.47s5.47,7.97,13.47,0Z" />
                    <path class="cls-3"
                        d="M222.55,446.04l-18.07,17.98c-1.26,1.39-4.68,6.23-.37,14.03l20.21,22.42,47.52.06-49.29-54.48Z" />
                    <path class="cls-3"
                        d="M164.48,487.25l126.27-125.75h-42.69l-61.87,62.44v-30.17h-35.19v93.47s5.47,7.97,13.47,0Z" />
                </g>
            </g>
        </pattern>
    </defs>
    <g class="cls-1">
        <g id="Layer_2" data-name="Layer 2">
            <g id="Capa_5" data-name="Capa 5">
                <rect class="cls-4" width="1279" height="721" />
            </g>
        </g>
    </g>
</svg>