<?xml version="1.0" encoding="UTF-8"?>
<svg id="Layer_2" data-name="Layer 2" xmlns="http://www.w3.org/2000/svg" viewBox="0 0 269.51 157.98">
  <defs>
    <style>
      .cls-1 {
        fill: #fff;
        stroke-width: 0px;
      }
    </style>
  </defs>
  <g id="Capa_5" data-name="Capa 5">
    <g>
      <g>
        <path class="cls-1" d="M213.85,71.97l-14.74,14.67c-1.02,1.13-3.82,5.08-.31,11.45l16.49,18.3,38.79.05-40.23-44.47Z"/>
        <path class="cls-1" d="M145.73,101.63V29.28h-21.52v87.38h14.19c2.96-1.11,6.96-4.55,7.33-15.03Z"/>
        <path class="cls-1" d="M115.86,105.22V29.28h-11.33c-2.67.21-9.52,2.21-9.52,17.12v20.39c0,2.32,0,4.57.03,6.78-.64-1.06-1.31-2.15-2-3.26l-25.56-40.54v-.5h-12c-2.67.21-9.52,2.21-9.52,17.12v33.65c0,18.24-9.5,18.24-12.62,18.24-7.85,0-11.83-6.14-11.83-18.24V29.28h-12c-2.67.21-9.52,2.21-9.52,17.12v33.31c0,24.27,12.03,38.18,33.01,38.18,10.17,0,18.69-3.25,24.65-9.39,6.52-6.71,9.82-16.51,9.82-29.13v-9.9c1.16,1.93,2.37,3.92,3.69,6.01l25.76,41.17h10.86c2.52-.5,7.1-2.63,8.07-11.44Z"/>
        <circle class="cls-1" cx="134.97" cy="11.56" r="11.56"/>
        <path class="cls-1" d="M166.45,105.61L269.51,2.97h-34.84l-50.49,50.97v-24.62h-28.72v76.29s4.47,6.5,11,0Z"/>
      </g>
      <g>
        <path class="cls-1" d="M46.26,139.12h-1.51v1.6h1.51c.72,0,.96-.39.96-.81s-.24-.79-.96-.79Z"/>
        <path class="cls-1" d="M46.9,137.34c0-.39-.27-.76-.95-.76h-1.21v1.52h1.2c.68,0,.96-.37.96-.77Z"/>
        <path class="cls-1" d="M54.92,131.81h-13.14c-3.47,0-6.29,2.81-6.29,6.29v1.48c0,3.47,2.81,6.29,6.29,6.29h13.14c3.47,0,6.29-2.81,6.29-6.29v-1.48c0-3.47-2.81-6.29-6.29-6.29ZM46.41,141.91h-3.03v-6.52h2.74c1.35,0,2.18.61,2.18,1.65,0,.69-.35,1.2-1.01,1.48.85.23,1.32.8,1.32,1.65,0,1.11-.82,1.74-2.21,1.74ZM51.48,143.64h-1.34l.72-1.84-1.96-4.67h1.41l1.16,3.11,1.22-3.11h1.35l-2.55,6.51Z"/>
      </g>
      <g>
        <path class="cls-1" d="M72.38,137.11v9.21c0,2.71,1.15,4.38,4.12,4.38s4.08-1.67,4.08-4.38v-9.21h1.76v9.19c0,3.3-1.32,5.95-5.84,5.95s-5.84-2.64-5.84-5.95v-9.19h1.72Z"/>
        <path class="cls-1" d="M88.36,137.11l8.2,12.98v-12.98h1.74v14.98h-2.42l-8.11-12.85v12.85h-1.72v-14.98h2.31Z"/>
        <path class="cls-1" d="M102,137.11h1.74v14.98h-1.74v-14.98Z"/>
        <path class="cls-1" d="M106.63,144.61c0-4.21,2.73-7.65,7.23-7.65,3.15,0,5.22,1.59,6.39,3.77l-1.5.95c-.99-1.85-2.71-3.13-4.89-3.13-3.3,0-5.38,2.69-5.38,6.06s2.07,6.06,5.38,6.06c2.12,0,3.88-1.15,4.85-2.97l1.52.97c-1.17,2.18-3.28,3.59-6.37,3.59-4.45,0-7.23-3.46-7.23-7.65Z"/>
        <path class="cls-1" d="M121.55,152.1l5.66-14.98h2.18l5.66,14.98h-1.72l-1.34-3.59h-7.36l-1.34,3.59h-1.74ZM125.18,147.03h6.26l-3.13-8.35-3.13,8.35Z"/>
        <path class="cls-1" d="M140.01,137.11l5.18,13.11,5.2-13.11h2.58v14.98h-1.72v-12.8l-5.13,12.8h-1.87l-5.11-12.8v12.8h-1.72v-14.98h2.6Z"/>
        <path class="cls-1" d="M155.31,152.1l5.66-14.98h2.18l5.66,14.98h-1.72l-1.34-3.59h-7.36l-1.34,3.59h-1.74ZM158.94,147.03h6.26l-3.13-8.35-3.13,8.35Z"/>
        <path class="cls-1" d="M170.31,144.61c0-4.21,2.73-7.65,7.23-7.65,3.15,0,5.22,1.59,6.39,3.77l-1.5.95c-.99-1.85-2.71-3.13-4.89-3.13-3.3,0-5.38,2.69-5.38,6.06s2.07,6.06,5.38,6.06c2.12,0,3.88-1.15,4.85-2.97l1.52.97c-1.17,2.18-3.28,3.59-6.37,3.59-4.45,0-7.23-3.46-7.23-7.65Z"/>
        <path class="cls-1" d="M188.36,137.11v6.81h8.35v-6.81h1.72v14.98h-1.72v-6.65h-8.35v6.65h-1.74v-14.98h1.74Z"/>
        <path class="cls-1" d="M201.29,144.65c0-4.3,3.17-7.69,7.43-7.69s7.38,3.39,7.38,7.69-3.17,7.71-7.38,7.71-7.43-3.39-7.43-7.71ZM214.25,144.65c0-3.42-2.36-6.1-5.53-6.1s-5.57,2.69-5.57,6.1,2.34,6.13,5.57,6.13,5.53-2.73,5.53-6.13Z"/>
      </g>
      <path class="cls-1" d="M215.6,157.98H71.17c-3.72,0-6.75-3.03-6.75-6.75v-13.14c0-3.72,3.03-6.75,6.75-6.75h144.43c3.72,0,6.75,3.03,6.75,6.75v13.14c0,3.72-3.03,6.75-6.75,6.75ZM71.17,132.27c-3.21,0-5.83,2.61-5.83,5.83v13.14c0,3.21,2.61,5.83,5.83,5.83h144.43c3.21,0,5.83-2.61,5.83-5.83v-13.14c0-3.21-2.61-5.83-5.83-5.83H71.17Z"/>
    </g>
  </g>
</svg>